<svg width="295" height="30" viewBox="0 0 295 30" fill="none" xmlns="http://www.w3.org/2000/svg">
<rect y="5" width="295" height="21" rx="10.5" fill="#FFEDD5"/>
<rect y="5" width="175" height="21" rx="10.5" fill="url(#paint0_linear_2_546)"/>
<path d="M257.683 20.1172C257.183 20.1172 256.726 20.0195 256.312 19.8242C255.898 19.6289 255.57 19.3613 255.328 19.0215C255.085 18.6816 254.953 18.2969 254.929 17.8672H255.949C255.98 18.1172 256.076 18.3418 256.236 18.541C256.396 18.7402 256.603 18.8984 256.857 19.0156C257.111 19.1328 257.386 19.1914 257.683 19.1914C258.042 19.1914 258.367 19.1094 258.656 18.9453C258.945 18.7812 259.171 18.5566 259.335 18.2715C259.5 17.9863 259.582 17.668 259.582 17.3164C259.582 16.9492 259.498 16.6211 259.33 16.332C259.162 16.043 258.927 15.8145 258.626 15.6465C258.326 15.4785 257.988 15.3945 257.613 15.3945C257.246 15.3867 256.929 15.4434 256.664 15.5645C256.398 15.6855 256.187 15.8828 256.031 16.1562H255.011L255.609 11.5156H260.203V12.4531H256.488L256.171 14.9375H256.253C256.449 14.7891 256.683 14.6699 256.957 14.5801C257.23 14.4902 257.511 14.4453 257.8 14.4453C258.332 14.4453 258.812 14.5664 259.242 14.8086C259.671 15.0508 260.007 15.3887 260.25 15.8223C260.492 16.2559 260.613 16.7461 260.613 17.293C260.613 17.832 260.486 18.3164 260.232 18.7461C259.978 19.1758 259.628 19.5117 259.183 19.7539C258.738 19.9961 258.238 20.1172 257.683 20.1172ZM265.998 12.5117V12.4531H261.51V11.5156H267.088V12.5L263.209 20H262.107L265.998 12.5117ZM267.48 20.0703C267.348 20.0703 267.223 20.0352 267.105 19.9648C266.988 19.8945 266.896 19.8008 266.83 19.6836C266.764 19.5664 266.73 19.4414 266.73 19.3086C266.73 19.1758 266.764 19.0508 266.83 18.9336C266.896 18.8164 266.988 18.7246 267.105 18.6582C267.223 18.5918 267.348 18.5586 267.48 18.5586C267.613 18.5586 267.738 18.5918 267.855 18.6582C267.973 18.7246 268.064 18.8164 268.131 18.9336C268.197 19.0508 268.23 19.1758 268.23 19.3086C268.23 19.4414 268.197 19.5664 268.131 19.6836C268.064 19.8008 267.973 19.8945 267.855 19.9648C267.738 20.0352 267.613 20.0703 267.48 20.0703ZM272.127 20.1172C271.541 20.1172 271.02 20.0156 270.563 19.8125C270.106 19.6094 269.75 19.3281 269.496 18.9688C269.242 18.6094 269.115 18.2031 269.115 17.75C269.115 17.3906 269.19 17.0547 269.338 16.7422C269.487 16.4297 269.694 16.1719 269.959 15.9688C270.225 15.7656 270.518 15.6406 270.838 15.5938V15.5469C270.565 15.4766 270.322 15.3516 270.112 15.1719C269.901 14.9922 269.737 14.7695 269.619 14.5039C269.502 14.2383 269.444 13.9531 269.444 13.6484C269.444 13.2188 269.561 12.832 269.795 12.4883C270.03 12.1445 270.35 11.877 270.756 11.6855C271.162 11.4941 271.619 11.3984 272.127 11.3984C272.635 11.3984 273.094 11.4941 273.504 11.6855C273.914 11.877 274.237 12.1445 274.471 12.4883C274.705 12.832 274.822 13.2188 274.822 13.6484C274.822 13.9531 274.762 14.2383 274.641 14.5039C274.52 14.7695 274.354 14.9922 274.143 15.1719C273.932 15.3516 273.69 15.4766 273.416 15.5469V15.5938C273.737 15.6406 274.028 15.7656 274.289 15.9688C274.551 16.1719 274.76 16.4297 274.916 16.7422C275.072 17.0547 275.151 17.3906 275.151 17.75C275.151 18.2031 275.022 18.6094 274.764 18.9688C274.506 19.3281 274.149 19.6094 273.692 19.8125C273.235 20.0156 272.713 20.1172 272.127 20.1172ZM272.127 19.1914C272.526 19.1914 272.873 19.1289 273.17 19.0039C273.467 18.8789 273.696 18.7031 273.856 18.4766C274.016 18.25 274.096 17.9883 274.096 17.6914C274.096 17.3789 274.012 17.0996 273.844 16.8535C273.676 16.6074 273.442 16.4141 273.141 16.2734C272.84 16.1328 272.502 16.0625 272.127 16.0625C271.752 16.0625 271.414 16.1328 271.114 16.2734C270.813 16.4141 270.578 16.6074 270.41 16.8535C270.242 17.0996 270.162 17.3789 270.17 17.6914C270.162 17.9883 270.239 18.25 270.399 18.4766C270.559 18.7031 270.787 18.8789 271.084 19.0039C271.381 19.1289 271.729 19.1914 272.127 19.1914ZM272.127 15.1719C272.447 15.1719 272.735 15.1113 272.989 14.9902C273.242 14.8691 273.44 14.6992 273.58 14.4805C273.721 14.2617 273.791 14.0117 273.791 13.7305C273.791 13.4492 273.723 13.2012 273.586 12.9863C273.449 12.7715 273.254 12.6055 273 12.4883C272.746 12.3711 272.455 12.3125 272.127 12.3125C271.799 12.3125 271.508 12.3711 271.254 12.4883C271 12.6055 270.805 12.7715 270.668 12.9863C270.531 13.2012 270.463 13.4492 270.463 13.7305C270.463 14.0117 270.535 14.2617 270.68 14.4805C270.824 14.6992 271.022 14.8691 271.272 14.9902C271.522 15.1113 271.807 15.1719 272.127 15.1719ZM278.122 15.4531C277.762 15.4531 277.456 15.3691 277.202 15.2012C276.948 15.0332 276.754 14.7949 276.622 14.4863C276.489 14.1777 276.422 13.8203 276.422 13.4141C276.422 13.0156 276.491 12.6621 276.627 12.3535C276.764 12.0449 276.959 11.8066 277.213 11.6387C277.467 11.4707 277.77 11.3867 278.122 11.3867C278.489 11.3867 278.799 11.4707 279.053 11.6387C279.307 11.8066 279.499 12.043 279.627 12.3477C279.756 12.6523 279.821 13.0078 279.821 13.4141C279.821 13.8203 279.754 14.1758 279.622 14.4805C279.489 14.7852 279.295 15.0234 279.041 15.1953C278.788 15.3672 278.481 15.4531 278.122 15.4531ZM278.122 14.7266C278.309 14.7266 278.465 14.6719 278.59 14.5625C278.715 14.4531 278.809 14.3008 278.872 14.1055C278.934 13.9102 278.965 13.6797 278.965 13.4141C278.965 13.1406 278.936 12.9062 278.877 12.7109C278.819 12.5156 278.727 12.3652 278.602 12.2598C278.477 12.1543 278.317 12.1055 278.122 12.1133C277.942 12.1133 277.788 12.166 277.659 12.2715C277.53 12.377 277.434 12.5273 277.372 12.7227C277.309 12.918 277.278 13.1484 277.278 13.4141C277.278 13.6797 277.309 13.9102 277.372 14.1055C277.434 14.3008 277.53 14.4531 277.659 14.5625C277.788 14.6719 277.942 14.7266 278.122 14.7266ZM283.301 20.1172C282.942 20.1172 282.633 20.0332 282.375 19.8652C282.118 19.6973 281.924 19.4609 281.795 19.1562C281.666 18.8516 281.602 18.4961 281.602 18.0898C281.602 17.6836 281.668 17.3262 281.801 17.0176C281.934 16.709 282.129 16.4707 282.387 16.3027C282.645 16.1348 282.95 16.0508 283.301 16.0508C283.661 16.0508 283.967 16.1348 284.221 16.3027C284.475 16.4707 284.666 16.709 284.795 17.0176C284.924 17.3262 284.989 17.6836 284.989 18.0898C284.989 18.4883 284.922 18.8418 284.79 19.1504C284.657 19.459 284.463 19.6973 284.209 19.8652C283.956 20.0332 283.653 20.1172 283.301 20.1172ZM283.301 19.3906C283.489 19.3906 283.645 19.3379 283.77 19.2324C283.895 19.127 283.987 18.9766 284.045 18.7812C284.104 18.5859 284.133 18.3555 284.133 18.0898C284.133 17.8164 284.104 17.5801 284.045 17.3809C283.987 17.1816 283.897 17.0293 283.776 16.9238C283.655 16.8184 283.497 16.7695 283.301 16.7773C283.122 16.7773 282.967 16.832 282.838 16.9414C282.709 17.0508 282.612 17.2031 282.545 17.3984C282.479 17.5938 282.446 17.8242 282.446 18.0898C282.446 18.3555 282.479 18.5859 282.545 18.7812C282.612 18.9766 282.708 19.127 282.833 19.2324C282.958 19.3379 283.114 19.3906 283.301 19.3906ZM283.09 11.5156H284.04L278.204 20H277.254L283.09 11.5156Z" fill="#46454A"/>
<rect x="146" width="3" height="30" rx="1.5" fill="#F8F8F8"/>
<defs>
<linearGradient id="paint0_linear_2_546" x1="0" y1="15.5" x2="175" y2="15.5" gradientUnits="userSpaceOnUse">
<stop stop-color="#EA580C"/>
<stop offset="1" stop-color="#FB923C"/>
</linearGradient>
</defs>
</svg>
