<svg width="184" height="30" viewBox="0 0 184 30" fill="none" xmlns="http://www.w3.org/2000/svg">
<path d="M2.44234 19.24C2.94901 19.64 3.81568 20.1867 5.04234 20.88C6.29568 21.5733 7.48234 21.92 8.60234 21.92C9.74901 21.92 10.3223 21.48 10.3223 20.6C10.3223 20.2 10.1623 19.8533 9.84234 19.56C9.52234 19.24 8.93568 18.88 8.08234 18.48C7.22901 18.08 6.58901 17.7733 6.16234 17.56C5.73568 17.32 5.16234 16.9467 4.44234 16.44C3.74901 15.9067 3.21568 15.36 2.84234 14.8C1.77568 13.28 1.24234 11.3467 1.24234 9C1.24234 6.65333 2.10901 4.68 3.84234 3.08C5.60234 1.45333 7.89568 0.639998 10.7223 0.639998C12.6423 0.639998 14.4157 0.853332 16.0423 1.28C17.669 1.68 18.509 2.21333 18.5623 2.88C18.5623 2.96 18.5623 3.04 18.5623 3.12C18.5623 4.05333 18.269 5.24 17.6823 6.68C17.0957 8.09333 16.6823 8.88 16.4423 9.04C14.7357 8.16 13.2023 7.72 11.8423 7.72C10.509 7.72 9.84234 8.2 9.84234 9.16C9.84234 9.74667 10.3357 10.2667 11.3223 10.72C11.5357 10.8267 11.8423 10.9733 12.2423 11.16C12.6423 11.3467 13.0957 11.5733 13.6023 11.84C14.1357 12.08 14.6957 12.4 15.2823 12.8C15.8957 13.1733 16.549 13.68 17.2423 14.32C18.6557 15.6533 19.3623 17.4133 19.3623 19.6C19.3623 22.4533 18.5757 24.7867 17.0023 26.6C15.429 28.4133 13.0023 29.3467 9.72234 29.4C8.12234 29.4 6.66901 29.2667 5.36234 29C4.08234 28.7333 2.96234 28.2133 2.00234 27.44C1.04234 26.6667 0.562344 25.7333 0.562344 24.64C0.562344 23.5467 0.762344 22.4667 1.16234 21.4C1.56234 20.3067 1.98901 19.5867 2.44234 19.24ZM40.5723 28.8C40.5723 28.9867 39.4257 29.08 37.1323 29.08C34.8657 29.08 33.7323 28.96 33.7323 28.72V17.08C33.7323 15.7467 33.2923 15.08 32.4123 15.08C31.959 15.08 31.359 15.3733 30.6123 15.96V28.76C30.6123 29.0267 29.4657 29.16 27.1723 29.16C24.9057 29.16 23.7723 29.0133 23.7723 28.72V15.64H22.7723C21.8923 15.64 21.4523 14.72 21.4523 12.88C21.4523 12.0533 21.6123 11.2133 21.9323 10.36C22.359 9.18667 23.0523 8.6 24.0123 8.6C24.9723 8.6 25.8923 8.85333 26.7723 9.36C27.679 9.86667 28.2257 10.3467 28.4123 10.8C30.0657 9.33333 31.8923 8.6 33.8923 8.6C35.919 8.6 37.5457 9.22666 38.7723 10.48C40.2123 9.22666 41.9457 8.6 43.9723 8.6C48.3723 8.6 50.5723 11.28 50.5723 16.64V28.8C50.5723 28.9867 49.4257 29.08 47.1323 29.08C44.8657 29.08 43.7323 28.96 43.7323 28.72V17.08C43.7323 15.7467 43.2923 15.08 42.4123 15.08C41.9323 15.08 41.319 15.3733 40.5723 15.96V28.8ZM61.2958 28.76C61.2958 28.9733 60.0691 29.08 57.6158 29.08C55.1891 29.08 53.9758 28.9867 53.9758 28.8V9.16C53.9758 8.97333 55.1891 8.88 57.6158 8.88C60.0691 8.88 61.2958 8.96 61.2958 9.12V28.76ZM61.2958 6.76C61.2958 6.94667 60.0691 7.04 57.6158 7.04C55.1891 7.04 53.9758 6.96 53.9758 6.8V1.04C53.9758 0.773331 55.1891 0.639998 57.6158 0.639998C60.0691 0.639998 61.2958 0.719999 61.2958 0.88V6.76ZM72.1933 28.68C72.1933 28.92 70.8333 29.04 68.1133 29.04C65.9799 29.0133 64.9133 28.9067 64.9133 28.72V1.48C64.9133 1.08 66.2066 0.88 68.7933 0.88C71.0599 0.959999 72.1933 1.09333 72.1933 1.28V28.68ZM90.9317 27.92C89.2517 28.9067 87.0917 29.4 84.4517 29.4C81.8117 29.4 79.5851 28.5067 77.7717 26.72C75.9584 24.9067 75.0517 22.4133 75.0517 19.24C75.0517 16.04 75.9184 13.4667 77.6517 11.52C79.4117 9.57333 81.6251 8.6 84.2917 8.6C86.9584 8.6 89.0117 9.28 90.4517 10.64C91.9184 12 92.6517 13.6533 92.6517 15.6C92.6517 19.92 90.1717 22.08 85.2117 22.08H82.4517C82.4517 22.88 82.6651 23.44 83.0917 23.76C83.5451 24.0533 84.1984 24.2 85.0517 24.2C86.9184 24.2 88.6917 23.7733 90.3717 22.92C90.3984 22.8933 90.5184 23.08 90.7317 23.48C91.3717 24.6267 91.6917 25.6 91.6917 26.4C91.6917 27.1733 91.4384 27.68 90.9317 27.92ZM85.9317 16.36C85.9317 15.24 85.3851 14.68 84.2917 14.68C83.7851 14.68 83.3451 14.84 82.9717 15.16C82.6251 15.4533 82.4517 15.8933 82.4517 16.48V17.72H84.6117C85.4917 17.72 85.9317 17.2667 85.9317 16.36ZM123.465 29.04C121.092 29.04 119.905 28.7733 119.905 28.24L119.065 12.2L114.185 28.44C114.078 28.76 113.172 28.92 111.465 28.92C109.758 28.92 108.878 28.7733 108.825 28.48L103.785 12.04L103.225 28C103.198 28.4 102.692 28.68 101.705 28.84C100.718 28.9733 99.8915 29.04 99.2248 29.04C98.5848 29.04 97.9582 29 97.3448 28.92C96.0648 28.7333 95.4382 28.4 95.4648 27.92L96.3848 1.92C96.3848 1.28 98.0115 0.959999 101.265 0.959999C102.225 0.959999 103.398 1.04 104.785 1.2C106.172 1.33333 106.945 1.61333 107.105 2.04L111.585 14.64L115.505 2C115.745 1.30667 117.585 0.959999 121.025 0.959999C122.012 0.959999 123.185 1.04 124.545 1.2C125.932 1.33333 126.625 1.58666 126.625 1.96L127.785 28.2C127.785 28.4933 127.265 28.7067 126.225 28.84C125.185 28.9733 124.265 29.04 123.465 29.04ZM134.074 14.48C133.327 13.1467 132.954 12.0667 132.954 11.24C132.954 10.3867 133.181 9.84 133.634 9.6C135.154 8.93333 137.234 8.6 139.874 8.6C142.541 8.6 144.421 9.22666 145.514 10.48C146.607 11.7067 147.154 13.5333 147.154 15.96V22.28H148.514C148.967 22.28 149.314 22.5467 149.554 23.08C149.821 23.6133 149.954 24.3467 149.954 25.28C149.954 26.2133 149.714 27.1333 149.234 28.04C148.781 28.9467 148.154 29.4 147.354 29.4C145.914 29.4 144.754 29.0133 143.874 28.24C143.474 27.92 143.167 27.5333 142.954 27.08C141.727 28.6267 139.821 29.4 137.234 29.4C135.287 29.4 133.647 28.7067 132.314 27.32C130.981 25.9333 130.314 24.2933 130.314 22.4C130.314 18.0533 132.914 15.88 138.114 15.88H140.314V15.48C140.314 14.7867 140.194 14.3467 139.954 14.16C139.741 13.9467 139.221 13.84 138.394 13.84C137.381 13.84 135.941 14.0533 134.074 14.48ZM137.274 21.84C137.274 22.4267 137.434 22.88 137.754 23.2C138.074 23.4933 138.474 23.64 138.954 23.64C139.461 23.64 139.914 23.44 140.314 23.04V19.96H139.194C137.914 19.96 137.274 20.5867 137.274 21.84ZM161.418 28.76C161.418 29.08 160.298 29.24 158.058 29.24C155.391 29.1333 154.058 28.96 154.058 28.72V14.56H152.018C151.485 14.56 151.218 13.64 151.218 11.8C151.218 11.32 151.258 10.7333 151.338 10.04C151.445 9.34667 151.645 9 151.938 9H154.058V5.48C154.058 4.94667 155.178 4.68 157.418 4.68C159.685 4.68 160.818 4.89333 160.818 5.32V7.88L160.858 9H164.258C164.711 9 164.938 9.93333 164.938 11.8C164.938 13.6667 164.711 14.6 164.258 14.6H161.418V28.76ZM182.065 27.92C180.385 28.9067 178.225 29.4 175.585 29.4C172.945 29.4 170.718 28.5067 168.905 26.72C167.091 24.9067 166.185 22.4133 166.185 19.24C166.185 16.04 167.051 13.4667 168.785 11.52C170.545 9.57333 172.758 8.6 175.425 8.6C178.091 8.6 180.145 9.28 181.585 10.64C183.051 12 183.785 13.6533 183.785 15.6C183.785 19.92 181.305 22.08 176.345 22.08H173.585C173.585 22.88 173.798 23.44 174.225 23.76C174.678 24.0533 175.331 24.2 176.185 24.2C178.051 24.2 179.825 23.7733 181.505 22.92C181.531 22.8933 181.651 23.08 181.865 23.48C182.505 24.6267 182.825 25.6 182.825 26.4C182.825 27.1733 182.571 27.68 182.065 27.92ZM177.065 16.36C177.065 15.24 176.518 14.68 175.425 14.68C174.918 14.68 174.478 14.84 174.105 15.16C173.758 15.4533 173.585 15.8933 173.585 16.48V17.72H175.745C176.625 17.72 177.065 17.2667 177.065 16.36Z" fill="#FB923C"/>
</svg>
